<svg version="1.1" id="Layer_1" xmlns="http://www.w3.org/2000/svg" xmlns:xlink="http://www.w3.org/1999/xlink" x="0px" y="0px"
	 width="100%" viewBox="0 0 500 500" enable-background="new 0 0 500 500" xml:space="preserve">
<path fill="#000000" opacity="1.000000" stroke="none" 
	d="
M452.000000,501.000000 
	C301.333374,501.000000 151.166733,501.000000 1.000081,501.000000 
	C1.000054,334.333405 1.000054,167.666824 1.000027,1.000170 
	C167.666550,1.000113 334.333099,1.000113 500.999756,1.000057 
	C500.999817,167.666519 500.999817,334.333038 500.999908,500.999756 
	C484.833344,501.000000 468.666656,501.000000 452.000000,501.000000 
M106.466408,272.973755 
	C107.202888,273.571136 107.939369,274.168488 109.462234,275.403717 
	C110.392639,267.723022 111.231529,260.797729 112.070427,253.872452 
	C112.296005,253.902634 112.521591,253.932816 112.747169,253.962997 
	C113.280495,261.278595 113.813812,268.594177 114.360283,276.090118 
	C115.348595,275.956848 116.149811,276.087189 116.604126,275.750061 
	C120.451462,272.894897 123.897354,269.233307 128.135361,267.246094 
	C132.227066,265.327515 132.516068,262.533691 131.870560,259.277069 
	C130.870148,254.229950 129.715942,249.139221 127.895538,244.344681 
	C124.469215,235.320541 118.476524,227.914383 112.014313,220.461090 
	C103.965584,228.220886 98.327011,236.996429 95.100792,246.995697 
	C93.431587,252.169159 92.823914,258.042297 93.423965,263.410767 
	C93.656242,265.488953 98.583672,266.997986 101.309082,268.858673 
	C102.924637,269.961670 104.417130,271.244904 106.466408,272.973755 
M114.001900,286.899933 
	C114.009270,296.004150 114.020889,296.050568 117.363281,299.498352 
	C118.682442,291.149261 121.394592,283.918915 130.162537,280.993500 
	C127.497086,285.407654 124.929428,289.659790 121.767746,294.895721 
	C148.424423,290.010590 160.327103,278.337280 157.383881,260.312195 
	C148.124817,263.241394 138.844406,265.764862 129.883209,269.136719 
	C122.049149,272.084442 116.319389,277.612823 114.001900,286.899933 
M109.704643,294.704926 
	C112.856583,284.951294 108.181206,277.549103 100.879082,272.762970 
	C94.142578,268.347565 85.987839,265.988434 78.285065,263.200806 
	C74.529045,261.841522 70.379578,261.569397 66.146385,260.754791 
	C67.612968,286.096283 85.020920,293.034149 101.392860,293.497253 
	C100.312935,291.051392 99.544739,288.810364 98.376350,286.802185 
	C97.135696,284.669800 95.515366,282.758331 93.662842,280.200989 
	C101.649414,283.189636 104.707962,287.359497 107.507759,298.518829 
	C108.171890,297.306305 108.715790,296.313293 109.704643,294.704926 
M352.111511,257.016205 
	C346.089325,260.157562 347.652679,265.990021 348.181000,270.653229 
	C348.783020,275.966583 354.397675,274.823364 358.689911,275.458069 
	C355.742706,277.461426 353.363464,279.078735 350.984222,280.696014 
	C351.250336,281.170929 351.516449,281.645844 351.782562,282.120758 
	C353.741974,281.999878 355.699860,281.824707 357.661133,281.769653 
	C361.507263,281.661682 363.853271,279.805725 363.961456,275.910400 
	C364.121521,270.146118 364.002838,264.374054 364.002838,258.271210 
	C360.035126,257.797119 356.502228,257.374969 352.111511,257.016205 
M183.254395,251.001709 
	C179.320786,251.001709 175.387161,251.001709 171.427155,251.001709 
	C171.427155,259.356659 171.427155,267.043640 171.427155,274.983917 
	C176.327789,274.983917 180.810776,275.094879 185.279449,274.891327 
	C186.184326,274.850098 187.035065,273.620575 187.910767,272.938904 
	C186.994156,272.296539 186.117233,271.181274 185.153473,271.100342 
	C182.237381,270.855530 179.287628,271.011841 176.282074,271.011841 
	C176.282074,268.731140 176.282074,267.140900 176.282074,265.303040 
	C177.313568,265.201843 178.166214,265.278473 178.895599,265.014496 
	C180.602310,264.396851 182.249924,263.615875 183.921463,262.901031 
	C182.158661,262.263306 180.407410,261.590546 178.627609,261.004486 
	C177.879684,260.758209 177.071335,260.695496 176.285645,260.548431 
	C176.285645,259.037170 176.285645,257.780823 176.285645,255.993896 
	C178.974472,255.993896 181.485077,256.295105 183.872009,255.881882 
	C185.323196,255.630646 186.583496,254.276596 187.929535,253.417953 
	C186.678940,252.613037 185.428329,251.808121 183.254395,251.001709 
M402.048645,270.983704 
	C398.692108,270.388977 400.132294,268.736572 401.273010,267.254822 
	C403.664795,264.148163 406.184937,261.138397 408.520844,257.991241 
	C410.966125,254.696732 410.339111,251.337830 407.199249,251.116730 
	C403.072968,250.826218 398.902924,250.909958 394.770416,251.152161 
	C393.883179,251.204163 393.075989,252.621353 392.231903,253.409637 
	C393.096100,254.257919 393.871674,255.691345 394.842102,255.838303 
	C397.199585,256.195343 399.647583,255.954498 403.051727,255.954498 
	C399.472168,260.814758 396.397400,264.777161 393.594910,268.923615 
	C392.747742,270.177063 391.941315,272.254089 392.433807,273.374939 
	C392.858307,274.341003 395.124786,274.748505 396.633270,274.927216 
	C398.760071,275.179077 400.973053,275.230957 403.086182,274.928375 
	C405.397186,274.597443 407.636383,273.765289 409.906891,273.151581 
	C408.599609,269.082947 405.204041,271.820190 402.048645,270.983704 
M241.476151,269.797211 
	C240.980011,267.265045 239.833359,264.642120 240.170319,262.226135 
	C240.508682,259.800293 242.325348,257.580658 243.494156,255.270660 
	C245.432587,256.580109 247.371017,257.889557 249.878433,259.583374 
	C252.885498,258.723114 253.905899,257.562195 252.698868,255.314987 
	C250.113144,250.500977 245.558334,250.823212 241.068512,251.004135 
	C237.074631,251.165100 235.639969,254.199753 235.223251,257.217072 
	C234.684708,261.116547 234.721085,265.209930 235.259232,269.116577 
	C236.055084,274.894165 242.428513,277.642303 248.185379,275.010315 
	C251.482712,273.502808 254.420227,271.693787 252.008774,266.359039 
	C250.303009,267.316284 248.865540,268.329590 247.275940,268.958344 
	C245.610764,269.616974 243.799515,269.906342 241.476151,269.797211 
M275.557068,273.946899 
	C280.445587,278.476898 285.561737,273.803955 290.472809,274.895782 
	C292.177856,262.059845 290.154510,257.544495 282.794373,257.010742 
	C277.880585,256.654419 275.514648,258.486847 275.591980,262.817291 
	C278.584290,262.817291 281.562164,262.817291 284.540039,262.817291 
	C283.193909,264.249908 281.820038,264.840759 280.403137,264.973846 
	C274.652771,265.514008 273.091248,267.899597 275.557068,273.946899 
M256.635590,251.308624 
	C256.635590,259.040588 256.635590,266.772552 256.635590,274.579681 
	C258.286469,274.579681 259.981628,274.579681 262.104858,274.579681 
	C262.104858,270.239441 262.104858,266.290466 262.104858,261.663483 
	C270.288422,263.938202 264.974274,271.057251 268.662231,275.910278 
	C269.911926,274.420349 271.733887,273.260803 271.863495,271.935791 
	C273.057465,259.726562 271.854248,257.886292 262.204376,256.451813 
	C262.135406,253.514481 262.014954,250.238525 256.635590,251.308624 
M450.022675,264.680389 
	C450.512512,268.906830 449.752869,273.545288 455.540588,275.309296 
	C459.734711,276.587616 462.766632,275.384247 467.075104,271.716919 
	C462.508698,270.820221 459.322266,270.194519 456.135834,269.568817 
	C456.259033,269.037201 456.382233,268.505554 456.505432,267.973938 
	C458.812988,267.973938 461.121399,268.012909 463.427948,267.964355 
	C466.488556,267.899963 467.552338,266.800171 466.290558,263.565704 
	C464.513672,259.010620 461.645782,256.761139 456.636200,256.915833 
	C451.940277,257.060883 450.598022,259.967407 450.022675,264.680389 
M382.617218,262.018860 
	C380.502289,257.237579 376.445282,256.334564 371.930969,257.118866 
	C367.587280,257.873535 367.046936,261.582062 367.086182,265.077423 
	C367.135498,269.472351 367.210510,274.051117 372.912659,275.466919 
	C376.874115,276.450470 380.107788,275.697693 383.587524,271.423401 
	C379.422760,270.723267 376.286560,270.196045 373.150360,269.668823 
	C373.259277,269.106476 373.368225,268.544159 373.477142,267.981812 
	C375.436584,267.981812 377.400787,267.893768 379.354462,267.999939 
	C383.537872,268.227234 384.984772,266.673340 382.617218,262.018860 
M321.458740,267.982971 
	C323.751923,267.563690 327.711761,269.348511 326.123108,264.049011 
	C324.454010,258.481262 321.154999,256.103638 315.572418,256.970764 
	C311.524384,257.599518 309.665192,260.727661 310.029175,266.387939 
	C310.301605,270.624146 311.224426,274.430817 316.161011,275.609619 
	C320.009735,276.528625 323.155884,275.519165 326.779999,271.515808 
	C322.521881,270.753662 319.330780,270.182526 316.139709,269.611389 
	C316.219269,269.164612 316.298798,268.717865 316.378357,268.271118 
	C317.787109,268.175201 319.195831,268.079285 321.458740,267.982971 
M415.808014,274.930786 
	C424.572479,277.323700 430.001831,273.247131 428.943604,264.973846 
	C428.402679,260.745178 425.670227,257.742889 421.749237,257.255493 
	C419.004120,256.914246 414.714447,257.767975 413.387207,259.672089 
	C410.897217,263.244446 410.736053,270.280060 415.808014,274.930786 
M210.377640,260.041656 
	C207.848969,265.826477 208.885803,272.853912 212.558243,274.821289 
	C216.779129,277.082489 221.753860,275.926666 224.354706,272.080505 
	C226.954178,268.236359 226.350052,262.676025 222.986481,259.487518 
	C219.298950,255.991913 214.871399,255.951797 210.377640,260.041656 
M336.648376,262.188324 
	C339.980835,261.762695 339.987701,264.019928 339.980042,266.304688 
	C339.970764,269.080536 339.977844,271.856445 339.977844,274.999664 
	C341.984375,274.847473 343.357849,274.743317 345.024872,274.616913 
	C345.024872,270.602386 344.831848,266.950745 345.075531,263.328552 
	C345.356049,259.159119 342.684662,257.611176 339.480743,257.135345 
	C336.214539,256.650299 332.820221,257.028076 329.008636,257.028076 
	C329.008636,261.579834 329.141937,265.875275 328.971497,270.158661 
	C328.797699,274.525574 330.585236,275.826691 334.464874,274.521851 
	C334.984314,270.427032 335.473694,266.569031 336.648376,262.188324 
M442.756165,274.728607 
	C444.344055,274.728607 445.931946,274.728607 447.954315,274.728607 
	C447.954315,270.785217 448.239624,267.145599 447.883484,263.569885 
	C447.418030,258.896759 443.222015,256.138428 438.719299,257.121185 
	C436.667969,257.568909 434.622375,258.042938 432.316864,258.563110 
	C432.316864,263.866119 432.316864,269.235474 432.316864,274.996582 
	C434.028564,274.840210 435.390503,274.715759 437.006653,274.568085 
	C437.006653,271.342407 436.758881,268.508118 437.115570,265.752045 
	C437.283264,264.456055 438.613739,263.310608 439.417297,262.096924 
	C440.274933,263.259644 441.679047,264.336456 441.878052,265.602661 
	C442.311066,268.357788 442.129517,271.209473 442.756165,274.728607 
M193.813171,274.925446 
	C197.246857,274.635071 200.744644,274.622498 204.068390,273.855652 
	C204.881851,273.667969 205.125763,271.011688 205.631546,269.490417 
	C204.203568,269.364746 202.705933,268.911926 201.365509,269.197357 
	C199.741058,269.543304 198.249496,270.513153 196.023865,271.518707 
	C196.023865,268.655823 195.579239,266.530182 196.189880,264.770844 
	C196.558807,263.707947 198.565659,263.213531 199.836578,262.463715 
	C201.480728,266.441437 204.323318,263.518738 206.894714,263.997009 
	C204.823532,258.979614 201.528183,256.762268 196.414474,256.898590 
	C192.679733,256.998108 190.963409,259.489380 190.351562,262.279907 
	C189.404037,266.601593 189.272247,271.130859 193.813171,274.925446 
M293.001221,259.571716 
	C293.001221,264.529724 293.001221,269.487732 293.001221,274.620514 
	C295.228851,274.620514 296.920685,274.620514 298.997406,274.620514 
	C298.997406,268.130798 299.040955,261.994293 298.983582,255.858719 
	C298.937775,250.962952 298.524994,250.696396 293.001221,251.767288 
	C293.001221,253.990982 293.001221,256.297119 293.001221,259.571716 
M305.413330,251.072189 
	C304.285034,251.840775 302.206512,252.574966 302.177277,253.383331 
	C301.920258,260.484741 302.028412,267.599365 302.028412,274.717896 
	C303.973572,274.717896 305.240265,274.717896 306.294586,274.717896 
	C306.294586,266.736938 306.294586,259.005737 305.413330,251.072189 
M129.920975,243.465225 
	C132.335709,243.753220 134.835007,244.508133 137.122513,244.093781 
	C138.006958,243.933563 139.274216,240.804123 138.827988,239.595749 
	C138.191177,237.871216 136.379990,236.110641 134.641052,235.359772 
	C130.918243,233.752258 128.698654,237.007339 129.920975,243.465225 
M89.578705,244.998764 
	C92.410187,245.264465 94.428421,244.424637 95.005219,241.296005 
	C95.688324,237.590698 93.056999,235.935165 90.451904,235.360321 
	C88.898315,235.017487 85.724815,236.440781 85.287857,237.743668 
	C84.301292,240.685303 84.323120,244.165176 89.578705,244.998764 
z"/>
<path fill="#A9D047" opacity="1.000000" stroke="none" 
	d="
M106.215683,272.710449 
	C104.417130,271.244904 102.924637,269.961670 101.309082,268.858673 
	C98.583672,266.997986 93.656242,265.488953 93.423965,263.410767 
	C92.823914,258.042297 93.431587,252.169159 95.100792,246.995697 
	C98.327011,236.996429 103.965584,228.220886 112.014313,220.461090 
	C118.476524,227.914383 124.469215,235.320541 127.895538,244.344681 
	C129.715942,249.139221 130.870148,254.229950 131.870560,259.277069 
	C132.516068,262.533691 132.227066,265.327515 128.135361,267.246094 
	C123.897354,269.233307 120.451462,272.894897 116.604126,275.750061 
	C116.149811,276.087189 115.348595,275.956848 114.360283,276.090118 
	C113.813812,268.594177 113.280495,261.278595 112.747169,253.962997 
	C112.521591,253.932816 112.296005,253.902634 112.070427,253.872452 
	C111.231529,260.797729 110.392639,267.723022 109.462234,275.403717 
	C107.939369,274.168488 107.202888,273.571136 106.215683,272.710449 
z"/>
<path fill="#03A95B" opacity="1.000000" stroke="none" 
	d="
M113.995987,286.468018 
	C116.319389,277.612823 122.049149,272.084442 129.883209,269.136719 
	C138.844406,265.764862 148.124817,263.241394 157.383881,260.312195 
	C160.327103,278.337280 148.424423,290.010590 121.767746,294.895721 
	C124.929428,289.659790 127.497086,285.407654 130.162537,280.993500 
	C121.394592,283.918915 118.682442,291.149261 117.363281,299.498352 
	C114.020889,296.050568 114.009270,296.004150 113.995987,286.468018 
z"/>
<path fill="#04AA5C" opacity="1.000000" stroke="none" 
	d="
M109.482162,295.012604 
	C108.715790,296.313293 108.171890,297.306305 107.507759,298.518829 
	C104.707962,287.359497 101.649414,283.189636 93.662842,280.200989 
	C95.515366,282.758331 97.135696,284.669800 98.376350,286.802185 
	C99.544739,288.810364 100.312935,291.051392 101.392860,293.497253 
	C85.020920,293.034149 67.612968,286.096283 66.146385,260.754791 
	C70.379578,261.569397 74.529045,261.841522 78.285065,263.200806 
	C85.987839,265.988434 94.142578,268.347565 100.879082,272.762970 
	C108.181206,277.549103 112.856583,284.951294 109.482162,295.012604 
z"/>
<path fill="#0AAB5F" opacity="1.000000" stroke="none" 
	d="
M352.540436,256.984528 
	C356.502228,257.374969 360.035126,257.797119 364.002838,258.271210 
	C364.002838,264.374054 364.121521,270.146118 363.961456,275.910400 
	C363.853271,279.805725 361.507263,281.661682 357.661133,281.769653 
	C355.699860,281.824707 353.741974,281.999878 351.782562,282.120758 
	C351.516449,281.645844 351.250336,281.170929 350.984222,280.696014 
	C353.363464,279.078735 355.742706,277.461426 358.689911,275.458069 
	C354.397675,274.823364 348.783020,275.966583 348.181000,270.653229 
	C347.652679,265.990021 346.089325,260.157562 352.540436,256.984528 
M356.393768,262.043884 
	C352.374512,262.994476 352.546478,265.955139 353.566223,268.809204 
	C353.820099,269.519745 356.014374,269.537018 357.316772,269.872955 
	C357.529083,267.717743 357.784576,265.565125 357.913910,263.404938 
	C357.937225,263.015289 357.441681,262.594574 356.393768,262.043884 
z"/>
<path fill="#01A85A" opacity="1.000000" stroke="none" 
	d="
M183.716064,251.002472 
	C185.428329,251.808121 186.678940,252.613037 187.929535,253.417953 
	C186.583496,254.276596 185.323196,255.630646 183.872009,255.881882 
	C181.485077,256.295105 178.974472,255.993896 176.285645,255.993896 
	C176.285645,257.780823 176.285645,259.037170 176.285645,260.548431 
	C177.071335,260.695496 177.879684,260.758209 178.627609,261.004486 
	C180.407410,261.590546 182.158661,262.263306 183.921463,262.901031 
	C182.249924,263.615875 180.602310,264.396851 178.895599,265.014496 
	C178.166214,265.278473 177.313568,265.201843 176.282074,265.303040 
	C176.282074,267.140900 176.282074,268.731140 176.282074,271.011841 
	C179.287628,271.011841 182.237381,270.855530 185.153473,271.100342 
	C186.117233,271.181274 186.994156,272.296539 187.910767,272.938904 
	C187.035065,273.620575 186.184326,274.850098 185.279449,274.891327 
	C180.810776,275.094879 176.327789,274.983917 171.427155,274.983917 
	C171.427155,267.043640 171.427155,259.356659 171.427155,251.001709 
	C175.387161,251.001709 179.320786,251.001709 183.716064,251.002472 
z"/>
<path fill="#04AA5C" opacity="1.000000" stroke="none" 
	d="
M402.474121,270.992615 
	C405.204041,271.820190 408.599609,269.082947 409.906891,273.151581 
	C407.636383,273.765289 405.397186,274.597443 403.086182,274.928375 
	C400.973053,275.230957 398.760071,275.179077 396.633270,274.927216 
	C395.124786,274.748505 392.858307,274.341003 392.433807,273.374939 
	C391.941315,272.254089 392.747742,270.177063 393.594910,268.923615 
	C396.397400,264.777161 399.472168,260.814758 403.051727,255.954498 
	C399.647583,255.954498 397.199585,256.195343 394.842102,255.838303 
	C393.871674,255.691345 393.096100,254.257919 392.231903,253.409637 
	C393.075989,252.621353 393.883179,251.204163 394.770416,251.152161 
	C398.902924,250.909958 403.072968,250.826218 407.199249,251.116730 
	C410.339111,251.337830 410.966125,254.696732 408.520844,257.991241 
	C406.184937,261.138397 403.664795,264.148163 401.273010,267.254822 
	C400.132294,268.736572 398.692108,270.388977 402.474121,270.992615 
z"/>
<path fill="#0AAB5F" opacity="1.000000" stroke="none" 
	d="
M241.764130,270.077148 
	C243.799515,269.906342 245.610764,269.616974 247.275940,268.958344 
	C248.865540,268.329590 250.303009,267.316284 252.008774,266.359039 
	C254.420227,271.693787 251.482712,273.502808 248.185379,275.010315 
	C242.428513,277.642303 236.055084,274.894165 235.259232,269.116577 
	C234.721085,265.209930 234.684708,261.116547 235.223251,257.217072 
	C235.639969,254.199753 237.074631,251.165100 241.068512,251.004135 
	C245.558334,250.823212 250.113144,250.500977 252.698868,255.314987 
	C253.905899,257.562195 252.885498,258.723114 249.878433,259.583374 
	C247.371017,257.889557 245.432587,256.580109 243.494141,255.270660 
	C242.325348,257.580658 240.508682,259.800293 240.170319,262.226135 
	C239.833359,264.642120 240.980011,267.265045 241.764130,270.077148 
z"/>
<path fill="#0AAB5F" opacity="1.000000" stroke="none" 
	d="
M275.339081,273.617035 
	C273.091248,267.899597 274.652771,265.514008 280.403137,264.973846 
	C281.820038,264.840759 283.193909,264.249908 284.540039,262.817291 
	C281.562164,262.817291 278.584290,262.817291 275.591980,262.817291 
	C275.514648,258.486847 277.880585,256.654419 282.794373,257.010742 
	C290.154510,257.544495 292.177856,262.059845 290.472809,274.895782 
	C285.561737,273.803955 280.445587,278.476898 275.339081,273.617035 
z"/>
<path fill="#03A95B" opacity="1.000000" stroke="none" 
	d="
M257.062531,251.196014 
	C262.014954,250.238525 262.135406,253.514481 262.204376,256.451813 
	C271.854248,257.886292 273.057465,259.726562 271.863495,271.935791 
	C271.733887,273.260803 269.911926,274.420349 268.662231,275.910278 
	C264.974274,271.057251 270.288422,263.938202 262.104858,261.663483 
	C262.104858,266.290466 262.104858,270.239441 262.104858,274.579681 
	C259.981628,274.579681 258.286469,274.579681 256.635590,274.579681 
	C256.635590,266.772552 256.635590,259.040588 257.062531,251.196014 
z"/>
<path fill="#0AAB5F" opacity="1.000000" stroke="none" 
	d="
M450.030945,264.256317 
	C450.598022,259.967407 451.940277,257.060883 456.636200,256.915833 
	C461.645782,256.761139 464.513672,259.010620 466.290558,263.565704 
	C467.552338,266.800171 466.488556,267.899963 463.427948,267.964355 
	C461.121399,268.012909 458.812988,267.973938 456.505432,267.973938 
	C456.382233,268.505554 456.259033,269.037201 456.135834,269.568817 
	C459.322266,270.194519 462.508698,270.820221 467.075104,271.716919 
	C462.766632,275.384247 459.734711,276.587616 455.540588,275.309296 
	C449.752869,273.545288 450.512512,268.906830 450.030945,264.256317 
z"/>
<path fill="#0AAB5F" opacity="1.000000" stroke="none" 
	d="
M382.803680,262.362366 
	C384.984772,266.673340 383.537872,268.227234 379.354462,267.999939 
	C377.400787,267.893768 375.436584,267.981812 373.477142,267.981812 
	C373.368225,268.544159 373.259277,269.106476 373.150360,269.668823 
	C376.286560,270.196045 379.422760,270.723267 383.587524,271.423401 
	C380.107788,275.697693 376.874115,276.450470 372.912659,275.466919 
	C367.210510,274.051117 367.135498,269.472351 367.086182,265.077423 
	C367.046936,261.582062 367.587280,257.873535 371.930969,257.118866 
	C376.445282,256.334564 380.502289,257.237579 382.803680,262.362366 
z"/>
<path fill="#0AAB5F" opacity="1.000000" stroke="none" 
	d="
M321.031677,267.983154 
	C319.195831,268.079285 317.787109,268.175201 316.378357,268.271118 
	C316.298798,268.717865 316.219269,269.164612 316.139709,269.611389 
	C319.330780,270.182526 322.521881,270.753662 326.779999,271.515808 
	C323.155884,275.519165 320.009735,276.528625 316.161011,275.609619 
	C311.224426,274.430817 310.301605,270.624146 310.029175,266.387939 
	C309.665192,260.727661 311.524384,257.599518 315.572418,256.970764 
	C321.154999,256.103638 324.454010,258.481262 326.123108,264.049011 
	C327.711761,269.348511 323.751923,267.563690 321.031677,267.983154 
z"/>
<path fill="#0AAB5F" opacity="1.000000" stroke="none" 
	d="
M415.442627,274.755310 
	C410.736053,270.280060 410.897217,263.244446 413.387207,259.672089 
	C414.714447,257.767975 419.004120,256.914246 421.749237,257.255493 
	C425.670227,257.742889 428.402679,260.745178 428.943604,264.973846 
	C430.001831,273.247131 424.572479,277.323700 415.442627,274.755310 
M420.358124,262.059204 
	C415.987305,264.522247 418.208832,267.677063 418.982635,270.900360 
	C424.888794,268.725464 425.303864,266.619873 420.358124,262.059204 
z"/>
<path fill="#0AAB5F" opacity="1.000000" stroke="none" 
	d="
M210.623199,259.709686 
	C214.871399,255.951797 219.298950,255.991913 222.986481,259.487518 
	C226.350052,262.676025 226.954178,268.236359 224.354706,272.080505 
	C221.753860,275.926666 216.779129,277.082489 212.558243,274.821289 
	C208.885803,272.853912 207.848969,265.826477 210.623199,259.709686 
M216.548706,270.933441 
	C217.300919,270.631256 218.618835,270.446533 218.710129,270.007050 
	C219.174149,267.773132 219.495117,265.466827 219.411499,263.202606 
	C219.397003,262.810303 216.259644,262.021942 216.157013,262.224274 
	C215.254700,264.003082 214.456635,265.928833 214.180984,267.888916 
	C214.056595,268.773407 215.185593,269.834198 216.548706,270.933441 
z"/>
<path fill="#04AA5C" opacity="1.000000" stroke="none" 
	d="
M336.305725,262.449677 
	C335.473694,266.569031 334.984314,270.427032 334.464874,274.521851 
	C330.585236,275.826691 328.797699,274.525574 328.971497,270.158661 
	C329.141937,265.875275 329.008636,261.579834 329.008636,257.028076 
	C332.820221,257.028076 336.214539,256.650299 339.480743,257.135345 
	C342.684662,257.611176 345.356049,259.159119 345.075531,263.328552 
	C344.831848,266.950745 345.024872,270.602386 345.024872,274.616913 
	C343.357849,274.743317 341.984375,274.847473 339.977844,274.999664 
	C339.977844,271.856445 339.970764,269.080536 339.980042,266.304688 
	C339.987701,264.019928 339.980835,261.762695 336.305725,262.449677 
z"/>
<path fill="#01A85A" opacity="1.000000" stroke="none" 
	d="
M442.477661,274.375153 
	C442.129517,271.209473 442.311066,268.357788 441.878052,265.602661 
	C441.679047,264.336456 440.274933,263.259644 439.417297,262.096924 
	C438.613739,263.310608 437.283264,264.456055 437.115570,265.752045 
	C436.758881,268.508118 437.006653,271.342407 437.006653,274.568085 
	C435.390503,274.715759 434.028564,274.840210 432.316864,274.996582 
	C432.316864,269.235474 432.316864,263.866119 432.316864,258.563110 
	C434.622375,258.042938 436.667969,257.568909 438.719299,257.121185 
	C443.222015,256.138428 447.418030,258.896759 447.883484,263.569885 
	C448.239624,267.145599 447.954315,270.785217 447.954315,274.728607 
	C445.931946,274.728607 444.344055,274.728607 442.477661,274.375153 
z"/>
<path fill="#0AAB5F" opacity="1.000000" stroke="none" 
	d="
M193.448303,274.750183 
	C189.272247,271.130859 189.404037,266.601593 190.351562,262.279907 
	C190.963409,259.489380 192.679733,256.998108 196.414474,256.898590 
	C201.528183,256.762268 204.823532,258.979614 206.894714,263.997009 
	C204.323318,263.518738 201.480728,266.441437 199.836578,262.463715 
	C198.565659,263.213531 196.558807,263.707947 196.189880,264.770844 
	C195.579239,266.530182 196.023865,268.655823 196.023865,271.518707 
	C198.249496,270.513153 199.741058,269.543304 201.365509,269.197357 
	C202.705933,268.911926 204.203568,269.364746 205.631531,269.490417 
	C205.125763,271.011688 204.881851,273.667969 204.068390,273.855652 
	C200.744644,274.622498 197.246857,274.635071 193.448303,274.750183 
z"/>
<path fill="#01A85A" opacity="1.000000" stroke="none" 
	d="
M293.001221,259.087494 
	C293.001221,256.297119 293.001221,253.990982 293.001221,251.767288 
	C298.524994,250.696396 298.937775,250.962952 298.983582,255.858719 
	C299.040955,261.994293 298.997406,268.130798 298.997406,274.620514 
	C296.920685,274.620514 295.228851,274.620514 293.001221,274.620514 
	C293.001221,269.487732 293.001221,264.529724 293.001221,259.087494 
z"/>
<path fill="#01A85A" opacity="1.000000" stroke="none" 
	d="
M305.853943,251.173355 
	C306.294586,259.005737 306.294586,266.736938 306.294586,274.717896 
	C305.240265,274.717896 303.973572,274.717896 302.028412,274.717896 
	C302.028412,267.599365 301.920258,260.484741 302.177277,253.383331 
	C302.206512,252.574966 304.285034,251.840775 305.853943,251.173355 
z"/>
<path fill="#A9D047" opacity="1.000000" stroke="none" 
	d="
M129.624725,243.165039 
	C128.698654,237.007339 130.918243,233.752258 134.641052,235.359772 
	C136.379990,236.110641 138.191177,237.871216 138.827988,239.595749 
	C139.274216,240.804123 138.006958,243.933563 137.122513,244.093781 
	C134.835007,244.508133 132.335709,243.753220 129.624725,243.165039 
z"/>
<path fill="#A9D047" opacity="1.000000" stroke="none" 
	d="
M89.162674,245.002609 
	C84.323120,244.165176 84.301292,240.685303 85.287857,237.743668 
	C85.724815,236.440781 88.898315,235.017487 90.451904,235.360321 
	C93.056999,235.935165 95.688324,237.590698 95.005219,241.296005 
	C94.428421,244.424637 92.410187,245.264465 89.162674,245.002609 
z"/>
<path fill="#000000" opacity="1.000000" stroke="none" 
	d="
M356.789734,262.116028 
	C357.441681,262.594574 357.937225,263.015289 357.913910,263.404938 
	C357.784576,265.565125 357.529083,267.717743 357.316772,269.872955 
	C356.014374,269.537018 353.820099,269.519745 353.566223,268.809204 
	C352.546478,265.955139 352.374512,262.994476 356.789734,262.116028 
z"/>
<path fill="#000000" opacity="1.000000" stroke="none" 
	d="
M420.752380,262.086304 
	C425.303864,266.619873 424.888794,268.725464 418.982635,270.900360 
	C418.208832,267.677063 415.987305,264.522247 420.752380,262.086304 
z"/>
<path fill="#000000" opacity="1.000000" stroke="none" 
	d="
M216.147308,270.874207 
	C215.185593,269.834198 214.056595,268.773407 214.180984,267.888916 
	C214.456635,265.928833 215.254700,264.003082 216.157013,262.224274 
	C216.259644,262.021942 219.397003,262.810303 219.411499,263.202606 
	C219.495117,265.466827 219.174149,267.773132 218.710129,270.007050 
	C218.618835,270.446533 217.300919,270.631256 216.147308,270.874207 
z"/>
</svg>